<?xml version="1.0"?>
<svg width="1268" height="1056" xmlns="http://www.w3.org/2000/svg" xmlns:svg="http://www.w3.org/2000/svg" enable-background="new 0 0 1268 1056" version="1.1" xml:space="preserve">
 <defs>
  <linearGradient id="svg_25" x1="0" x2="1" y1="0" y2="0">
   <stop id="jq_stop_4267" offset="0.04" stop-color="#00bfbf"/>
   <stop id="jq_stop_8079" offset="0.56" stop-color="#003f7f"/>
  </linearGradient>
  <linearGradient id="svg_26" spreadMethod="pad" x1="0" x2="1" y1="0" y2="0">
   <stop id="svg_10" offset="0" stop-color="#003f7f"/>
   <stop id="svg_1" offset="0.68" stop-color="#28c1c1" stop-opacity="0.99"/>
  </linearGradient>
 </defs>
 <g class="layer">
  <title>Layer 1</title>
  <path d="m692.21,655.19c0.08,56.86 -13.73,110.24 -41.44,159.77c-29.52,52.77 -70.59,94.53 -122.93,124.96c-43.18,25.1 -89.72,39.58 -139.56,43.32c-65.04,4.89 -126.34,-8.07 -183.59,-39.21c-39.24,-21.35 -72.84,-49.72 -100.45,-84.92c-39.89,-50.83 -63.42,-108.3 -69.55,-172.77c-6.03,-63.52 4.95,-124.13 34.26,-180.63c43.66,-84.16 111.31,-140.42 202.46,-167.47c47.04,-13.96 95.02,-16.82 143.42,-8.5c28.54,4.9 56.92,10.73 85.82,16.67c0.72,7.65 0.73,14.81 1.31,21.93c1.13,14.04 1.98,28.14 4,42.07c5.68,39.11 18.97,75.68 38.72,109.87c16.47,28.5 36.45,54.22 60.59,76.8c18.2,17.02 37.89,31.89 59.29,44.48c8.83,5.2 18.41,9.13 27.65,13.63m-264.65,119.88c31.02,-17.05 52.04,-42.44 63.64,-75.85c7.57,-21.76 11.23,-44.25 11.89,-67.13c0.77,-26.97 0.53,-53.96 0.87,-80.94c0.05,-3.37 -1,-5.06 -4.25,-6.16c-13.89,-4.67 -27.59,-9.94 -41.56,-14.34c-28.41,-8.92 -57.33,-15.13 -87.34,-14.7c-51.62,0.73 -93.71,20.27 -122.48,64.12c-51.68,78.77 -12.11,164.77 52.01,197.88c42.36,21.87 84.78,18.71 127.22,-2.88z" fill="#003f7f" id="svg_2"/>
  <path d="m1134.22,325c-0.02,26.49 0.54,52.49 -3.18,78.34c-7.09,49.31 -24.36,94.7 -51.98,136.13c-29.36,44.06 -67.22,79.07 -113.27,105.1c-36.37,20.57 -75.39,33.56 -116.84,39.1c-41.42,5.54 -82.44,3.3 -123.08,-6.41c-3.28,-0.79 -4.69,-1.88 -4.69,-5.54c0.11,-66.33 0.08,-132.65 0.09,-198.98c0,-1.11 0.16,-2.22 0.32,-4.27c2.05,1.38 3.49,2.33 4.92,3.3c55.71,38.14 131.86,30.15 178.22,-18.86c26.61,-28.13 38.86,-61.72 38.59,-100.39c-0.38,-54.33 -0.11,-108.66 -0.23,-162.98c-0.01,-3.57 1.17,-4.49 4.61,-4.49c60.66,0.09 121.32,0.12 181.98,-0.04c4.63,-0.01 4.58,2.22 4.57,5.51c-0.05,44.66 -0.03,89.32 -0.03,134.48z" fill="url(#svg_26)" id="svg_3"/>
  <path d="m692.34,654.77c-9.37,-4.08 -18.95,-8.01 -27.78,-13.21c-21.4,-12.59 -41.09,-27.46 -59.29,-44.48c-24.14,-22.58 -44.12,-48.3 -60.59,-76.8c-19.75,-34.19 -33.04,-70.76 -38.72,-109.87c-2.02,-13.93 -2.87,-28.03 -4,-42.07c-0.58,-7.12 -0.59,-14.28 -0.91,-21.88c-0.02,-26.79 0.01,-53.11 0.06,-79.44c0.04,-25.49 0.09,-50.98 0.16,-76.48c0,-1.61 0.16,-3.22 0.27,-5.09c63.63,0 126.86,0 190.76,0c0,2.18 0,4.11 0,6.04c0,57.82 -0.04,115.64 0,173.45c0.06,95.31 0.17,190.61 0.26,285.91c0,1.17 -0.05,2.33 -0.22,3.92z" fill="url(#svg_25)" id="svg_4"/>
 </g>
</svg>