<?xml version="1.0"?>
<svg width="1080" height="540" xmlns="http://www.w3.org/2000/svg" xmlns:svg="http://www.w3.org/2000/svg" version="1.1" xml:space="preserve">
 <desc>Created with Fabric.js 5.2.4</desc>
 <defs>undefinedundefinedundefinedundefinedundefined</defs>
 <g class="layer">
  <title>Layer 1</title>
  <rect fill="#000000" fill-opacity="0" height="534" id="svg_19" width="1075" x="2" y="2"/>
  <g id="svg_5" transform="matrix(0.45 0 0 0.45 258.08 288.02)">
   <g id="svg_6">
    <g id="svg_2" transform="matrix(1 0 0 1 -221.02 70.04)">
     <path d="m692.21,672.97c0.08,56.86 -13.73,110.24 -41.44,159.77c-29.52,52.77 -70.59,94.53 -122.93,124.96c-43.18,25.1 -89.72,39.58 -139.56,43.32c-65.04,4.89 -126.34,-8.07 -183.59,-39.21c-39.24,-21.35 -72.84,-49.72 -100.45,-84.92c-39.89,-50.83 -63.42,-108.3 -69.55,-172.77c-6.03,-63.52 4.95,-124.13 34.26,-180.63c43.66,-84.16 111.31,-140.42 202.46,-167.47c47.04,-13.96 95.02,-16.82 143.42,-8.5c28.54,4.9 56.92,10.73 85.82,16.67c0.72,7.65 0.73,14.81 1.31,21.93c1.13,14.04 1.98,28.14 4,42.07c5.68,39.11 18.97,75.68 38.72,109.87c16.47,28.5 36.45,54.22 60.59,76.8c18.2,17.02 37.89,31.89 59.29,44.48c8.83,5.2 18.41,9.13 27.65,13.63m-264.65,119.88c31.02,-17.05 52.04,-42.44 63.64,-75.85c7.57,-21.76 11.23,-44.25 11.89,-67.13c0.77,-26.97 0.53,-53.96 0.87,-80.94c0.05,-3.37 -1,-5.06 -4.25,-6.16c-13.89,-4.67 -27.59,-9.94 -41.56,-14.34c-28.41,-8.92 -57.33,-15.13 -87.34,-14.7c-51.62,0.73 -93.71,20.27 -122.48,64.12c-51.68,78.77 -12.11,164.77 52.01,197.88c42.36,21.87 84.78,18.71 127.22,-2.88z" fill="rgb(0,63,127)" fill-rule="nonzero" id="svg_7" stroke-dashoffset="0" stroke-miterlimit="4" transform="translate(-362.65 -654.67)"/>
    </g>
    <g id="svg_3" transform="matrix(1 0 0 1 344.04 -148.8)">
     <linearGradient gradientTransform="matrix(1 0 0 1 0 0)" gradientUnits="objectBoundingBox" id="SVGID_svg_26_3" x1="0" x2="1" y1="0" y2="0">
      <stop offset="0%" stop-color="rgb(0,63,127)"/>
      <stop offset="68%" stop-color="rgb(40,193,193)" stop-opacity="0.99"/>
     </linearGradient>
     <path d="m1134.22,342.78c-0.02,26.49 0.54,52.49 -3.18,78.34c-7.09,49.31 -24.36,94.7 -51.98,136.13c-29.36,44.06 -67.22,79.07 -113.27,105.1c-36.37,20.57 -75.39,33.56 -116.84,39.1c-41.42,5.54 -82.44,3.3 -123.08,-6.41c-3.28,-0.79 -4.69,-1.88 -4.69,-5.54c0.11,-66.33 0.08,-132.65 0.09,-198.98c0,-1.11 0.16,-2.22 0.32,-4.27c2.05,1.38 3.49,2.33 4.92,3.3c55.71,38.14 131.86,30.15 178.22,-18.86c26.61,-28.13 38.86,-61.72 38.59,-100.39c-0.38,-54.33 -0.11,-108.66 -0.23,-162.98c-0.01,-3.57 1.17,-4.49 4.61,-4.49c60.66,0.09 121.32,0.12 181.98,-0.04c4.63,-0.01 4.58,2.22 4.57,5.51c-0.05,44.66 -0.03,89.32 -0.03,134.48z" fill="url(#SVGID_svg_26_3)" fill-rule="nonzero" id="svg_8" stroke-dashoffset="0" stroke-miterlimit="4" transform="translate(-927.72 -435.83)"/>
    </g>
    <g id="svg_4" transform="matrix(1 0 0 1 13.13 -164.52)">
     <linearGradient gradientTransform="matrix(1 0 0 1 0 0)" gradientUnits="objectBoundingBox" id="SVGID_svg_25_4" x1="0" x2="1" y1="0" y2="0">
      <stop offset="4%" stop-color="rgb(0,191,191)"/>
      <stop offset="56.00000000000001%" stop-color="rgb(0,63,127)"/>
     </linearGradient>
     <path d="m692.34,672.55c-9.37,-4.08 -18.95,-8.01 -27.78,-13.21c-21.4,-12.59 -41.09,-27.46 -59.29,-44.48c-24.14,-22.58 -44.12,-48.3 -60.59,-76.8c-19.75,-34.19 -33.04,-70.76 -38.72,-109.87c-2.02,-13.93 -2.87,-28.03 -4,-42.07c-0.58,-7.12 -0.59,-14.28 -0.91,-21.88c-0.02,-26.79 0.01,-53.11 0.06,-79.44c0.04,-25.49 0.09,-50.98 0.16,-76.48c0,-1.61 0.16,-3.22 0.27,-5.09c63.63,0 126.86,0 190.76,0c0,2.18 0,4.11 0,6.04c0,57.82 -0.04,115.64 0,173.45c0.06,95.31 0.17,190.61 0.26,285.91c0,1.17 -0.05,2.33 -0.22,3.92z" fill="url(#SVGID_svg_25_4)" fill-rule="nonzero" id="svg_9" stroke-dashoffset="0" stroke-miterlimit="4" transform="translate(-596.8 -420.11)"/>
    </g>
   </g>
  </g>
  <path d="m776.14,250.41c0.82,1.03 1.45,1.74 2.44,2.87c5.02,-8.3 10.04,-16.14 14.54,-24.27c2.11,-3.83 4.49,-5.76 9,-5.16c3.06,0.4 6.22,0.08 10.36,0.08c-1.23,2.34 -1.96,3.91 -2.84,5.38c-6.5,10.87 -12.85,21.82 -19.61,32.51c-3.08,4.87 -4.63,9.77 -4.24,15.52c0.33,4.96 0.07,9.96 0.07,15.43c-5.47,0 -10.65,0 -16.55,0c0,-6.4 0.05,-12.83 -0.04,-19.26c-0.03,-1.97 0.1,-4.25 -0.82,-5.83c-7.09,-12.21 -14.42,-24.28 -22.25,-37.35c-1.13,2.33 -1.87,3.71 -2.49,5.15c-7.74,17.87 -15.53,35.73 -23.11,53.67c-1.3,3.08 -2.9,4.22 -6.28,4.2c-11.89,-0.06 -11.87,0.07 -16.48,-10.64c-7.64,-17.74 -15.32,-35.47 -22.97,-53.2c-0.65,-1.5 -1.22,-3.04 -2.21,-5.49c5.97,0 11.36,-0.2 16.71,0.17c1.03,0.07 2.21,2.23 2.82,3.64c5.55,12.83 10.98,25.72 16.47,38.59c0.63,1.47 1.39,2.89 2.56,5.31c3.05,-6.97 5.7,-13 8.32,-19.03c3.57,-8.25 7.23,-16.47 10.62,-24.8c1.16,-2.84 2.6,-4.17 5.85,-4.05c6.82,0.25 13.67,-0.18 20.47,0.24c2.02,0.12 4.65,1.66 5.76,3.36c4.82,7.39 9.18,15.07 13.9,22.96z" fill="#ffffff" id="svg_16" transform="matrix(1 0 0 1 0 0)"/>
  <path d="m574.93,290.93c-13.19,0.52 -25.98,0.94 -38.78,1.31c-1.29,0.04 -2.59,-0.23 -4.1,-0.37c0,-22.86 0,-45.46 0,-68.65c1.64,-0.1 3.23,-0.3 4.81,-0.27c11.47,0.18 23.07,-0.56 34.39,0.84c18.37,2.29 29.08,14.31 30.18,31.72c1.08,17.24 -8.42,30.1 -26.5,35.42m9.68,-31.95c-0.07,-11.61 -5.22,-19.4 -15.48,-21.39c-6.57,-1.27 -13.45,-0.92 -20.44,-1.3c0,14.6 0,28.28 0,41.95c5.91,0 11.42,0.44 16.83,-0.09c11.28,-1.12 17.23,-7.12 19.09,-19.17z" fill="#ffffff" id="svg_15"/>
  <path d="m811.92,268.62c-4.52,-19.62 4.27,-36.99 21.62,-43.34c19.1,-6.98 40.41,0.16 48.75,17.01c10.79,21.81 -1.12,50.5 -32.16,52.01c-18.07,0.87 -32.82,-8.9 -38.21,-25.68m22.13,-26.22c-0.98,1.14 -2.05,2.21 -2.91,3.42c-5.13,7.24 -5,18.61 0.24,25.89c4.99,6.94 14.16,10.03 22.69,7.66c8.44,-2.35 14.06,-8.89 15.09,-17.95c1.04,-9.05 -1.88,-16.62 -9.85,-21.36c-8.47,-5.03 -16.88,-4.12 -25.26,2.34z" fill="#ffffff" id="svg_14"/>
  <path d="m658.71,292.27c-15.44,0 -30.4,0 -45.59,0c0,-23.29 0,-46.02 0,-69.05c17.38,0 34.45,0 52.22,0c0,3.69 0.29,7.17 -0.18,10.55c-0.14,1.03 -2.38,2.48 -3.69,2.51c-8.66,0.23 -17.33,0.12 -26,0.12c-1.79,0 -3.58,0 -6.13,0c0,4.27 -0.27,8.06 0.19,11.77c0.11,0.96 2.48,2.29 3.84,2.34c7.33,0.23 14.68,0.37 21.99,0.01c4.54,-0.22 6.56,1.04 5.91,5.79c-0.29,2.09 -0.05,4.26 -0.05,7.26c-7.52,0 -14.6,0 -21.69,0c-10.34,0 -10.34,0 -10.21,10.27c0.02,1.45 0.18,2.91 0.3,4.81c12.25,0 24.19,0 36.57,0c0,4.52 0,8.58 0,13.3c-2.2,0.1 -4.6,0.21 -7.48,0.32z" fill="#ffffff" id="svg_13"/>
  <path d="m895.17,281.35c-1.56,-5.58 -3.89,-10.8 -4.11,-16.12c-0.57,-13.45 -0.19,-26.95 -0.19,-40.87c5.39,0 10.58,0 16.27,0c0.08,1.87 0.22,3.65 0.23,5.43c0.09,12 -0.14,24 0.3,35.98c0.36,9.84 6.45,14.9 16.06,14.27c6.44,-0.42 11.01,-4.02 12.41,-10.39c0.74,-3.37 0.93,-6.92 0.96,-10.4c0.12,-11.48 0.04,-22.96 0.04,-34.88c5.52,0 10.7,0 15.45,0c0,15.93 0.98,31.77 -0.31,47.42c-0.99,11.9 -9.38,19.39 -21.23,21.56c-13.82,2.53 -26.7,1.1 -35.88,-12z" fill="#ffffff" id="svg_12"/>
 </g>
</svg>